<?xml version="1.0" standalone="no"?>
<!DOCTYPE svg PUBLIC "-//W3C//DTD SVG 20010904//EN"
 "http://www.w3.org/TR/2001/REC-SVG-20010904/DTD/svg10.dtd">
<svg version="1.0" xmlns="http://www.w3.org/2000/svg"
 width="401.000000pt" height="396.000000pt" viewBox="0 0 401.000000 396.000000"
 preserveAspectRatio="xMidYMid meet">

<g transform="translate(0.000000,396.000000) scale(0.100000,-0.100000)"
fill="#000000" stroke="none">
<path d="M1847 3756 c-21 -8 -41 -16 -43 -19 -3 -3 -19 -1 -35 3 -16 5 -31 5
-34 0 -3 -4 -24 -6 -48 -3 -43 5 -209 -21 -239 -38 -10 -5 -23 -9 -30 -9 -7
-1 -31 -9 -53 -20 -22 -11 -44 -19 -49 -20 -13 0 -239 -113 -253 -127 -7 -6
-29 -17 -48 -24 -19 -7 -35 -17 -35 -21 0 -4 -9 -8 -20 -8 -11 0 -23 -7 -26
-15 -4 -8 -21 -22 -40 -31 -18 -9 -45 -27 -59 -40 -14 -13 -29 -24 -33 -24
-12 0 -41 -38 -35 -44 4 -3 -1 -6 -11 -6 -9 0 -20 -8 -23 -17 -9 -23 -94 -104
-103 -98 -4 3 -13 -2 -20 -10 -10 -12 -10 -15 0 -15 9 0 8 -5 -3 -18 -10 -10
-14 -21 -11 -24 3 -3 -3 -5 -13 -4 -10 0 -17 -4 -16 -11 1 -6 -27 -41 -62 -78
-36 -37 -65 -73 -65 -81 0 -8 -4 -14 -9 -14 -5 0 -14 -13 -20 -30 -5 -16 -14
-30 -19 -30 -7 0 -33 -43 -36 -60 -2 -11 -50 -126 -56 -135 -4 -5 -11 -23 -15
-40 -10 -38 -9 -33 -28 -77 -10 -21 -17 -42 -17 -48 0 -6 -4 -8 -10 -5 -5 3
-12 -7 -16 -22 -3 -15 -16 -57 -28 -94 -13 -38 -20 -73 -16 -85 7 -17 8 -17
12 6 5 25 8 -29 11 -212 1 -54 5 -90 9 -80 4 10 7 -2 7 -28 1 -35 -2 -42 -10
-30 -9 12 -10 11 -4 -5 4 -11 8 -28 10 -38 2 -10 9 -32 14 -50 6 -18 18 -58
27 -89 10 -34 21 -55 27 -51 6 4 8 0 4 -10 -3 -10 -3 -17 1 -17 4 0 9 -12 10
-26 1 -14 8 -32 17 -40 8 -8 24 -41 36 -73 11 -33 36 -76 55 -96 19 -21 34
-41 34 -45 0 -10 195 -210 204 -210 4 0 21 -13 37 -29 27 -28 64 -48 179 -99
65 -28 102 -39 214 -58 142 -24 273 -14 370 28 108 48 204 113 280 192 85 88
189 225 182 242 -2 6 2 33 9 58 8 25 17 83 20 128 11 130 -18 251 -96 410 -20
42 -40 87 -44 100 -4 13 -34 85 -66 160 -85 198 -97 277 -68 443 14 85 41 189
49 195 4 3 15 21 25 40 32 64 187 203 241 216 16 4 53 18 83 30 29 13 57 21
63 18 5 -3 14 -1 21 4 24 19 237 40 237 23 0 -6 3 -10 8 -9 4 0 14 -2 22 -5
18 -8 127 -26 187 -32 59 -5 183 -47 176 -58 -3 -6 -1 -7 6 -3 6 4 28 -2 47
-13 19 -12 41 -21 49 -21 7 0 15 -7 19 -15 3 -8 26 -25 51 -37 25 -12 45 -26
45 -30 0 -4 6 -8 14 -8 8 0 16 -7 20 -15 3 -8 11 -15 18 -15 8 0 21 -8 30 -19
8 -10 20 -20 24 -22 8 -4 62 -63 109 -120 35 -41 67 -89 60 -89 -3 0 6 -12 20
-26 58 -58 148 -294 185 -484 25 -130 43 -327 37 -393 -3 -29 -12 -83 -20
-122 -8 -38 -20 -99 -26 -134 -13 -69 -80 -280 -108 -342 -11 -23 -23 -37 -31
-34 -7 3 -10 0 -7 -5 3 -6 3 -10 -2 -10 -4 0 -19 -17 -33 -38 -13 -20 -58 -79
-100 -131 -41 -51 -86 -108 -99 -125 -35 -44 -165 -156 -220 -188 -84 -50
-120 -68 -135 -68 -9 0 -30 -6 -48 -14 -18 -8 -54 -23 -80 -33 -27 -10 -48
-23 -48 -29 0 -15 -125 -50 -208 -58 -24 -2 -49 -9 -55 -15 -6 -6 -28 -11 -48
-11 -21 0 -41 -5 -44 -10 -4 -6 -14 -10 -23 -9 -10 1 -28 -1 -42 -4 -27 -7
-73 -15 -130 -23 -39 -5 -177 -13 -290 -17 -41 -1 -81 -6 -87 -10 -7 -5 -18
-5 -23 -2 -18 11 -101 15 -95 5 4 -6 10 -8 14 -5 5 2 19 -7 31 -20 13 -14 19
-25 14 -26 -22 -2 -77 3 -104 11 -22 6 -30 5 -30 -4 0 -9 21 -16 58 -20 124
-14 183 -28 178 -41 -5 -14 24 -24 87 -31 20 -2 46 -8 57 -14 13 -7 20 -7 20
-1 0 11 30 9 90 -7 19 -5 40 -10 45 -11 22 -6 19 -13 -5 -11 -14 1 -38 2 -55
1 -28 -2 -29 -2 -10 -14 22 -13 155 -26 155 -15 0 4 38 6 85 4 47 -2 88 0 91
5 3 5 17 9 32 10 l27 1 -25 7 c-22 6 -23 8 -7 14 27 10 59 9 52 -3 -7 -11 55
-2 68 10 5 4 -3 5 -16 3 -14 -3 -28 0 -31 6 -4 6 -1 11 8 11 8 0 17 6 19 13 4
9 6 9 6 0 1 -7 8 -13 16 -13 8 0 15 -7 15 -15 0 -8 5 -15 11 -15 6 0 9 7 5 15
-6 17 19 21 29 5 11 -18 23 -11 18 10 -6 22 7 26 25 8 9 -9 17 -9 34 -1 13 7
30 14 38 17 8 3 4 5 -10 5 -44 -2 -46 3 -5 11 62 12 82 18 104 29 12 7 22 7
25 2 4 -5 14 -8 24 -6 9 2 21 4 25 4 5 1 5 5 2 11 -6 10 1 12 68 12 35 0 50
12 25 20 -7 3 -6 7 5 11 9 3 17 2 17 -3 0 -6 15 -10 33 -10 29 1 30 2 15 14
-19 14 -14 26 9 26 8 0 12 -4 9 -9 -4 -5 3 -7 15 -4 12 3 18 11 15 19 -4 10 3
13 27 11 26 -2 31 1 29 16 -2 9 2 17 8 17 5 0 10 -4 10 -10 0 -5 7 -7 15 -4 9
4 13 15 11 30 -4 20 -1 24 20 24 13 0 24 5 24 11 0 6 9 9 19 6 23 -6 59 27 42
38 -6 3 -11 2 -11 -2 0 -9 -69 -43 -86 -43 -5 0 15 14 44 31 28 17 52 34 52
39 0 4 6 8 13 7 35 -1 48 6 62 33 8 16 15 32 15 36 -2 7 53 54 62 54 4 0 30
28 58 63 28 34 57 70 66 79 9 9 13 21 9 27 -3 6 -1 11 5 11 6 0 8 5 5 10 -3 6
-1 10 4 10 6 0 11 7 11 15 0 8 3 15 8 15 12 0 64 51 58 57 -3 3 -13 0 -22 -8
-9 -7 -5 4 10 25 14 21 26 45 26 52 0 8 5 14 10 14 6 0 10 9 10 20 0 11 5 20
11 20 6 0 9 9 6 19 -2 11 6 42 19 70 14 27 24 54 23 58 -1 4 7 29 19 56 12 26
21 48 20 50 -1 1 4 12 10 24 8 14 18 20 27 17 8 -4 15 -1 15 6 0 10 3 10 14 1
11 -9 15 -5 18 24 2 19 0 35 -4 35 -4 0 -8 -9 -8 -20 0 -11 -5 -20 -11 -20 -6
0 -8 8 -5 17 3 10 8 37 11 61 5 43 23 82 37 82 5 0 8 17 7 38 0 29 -2 33 -8
17 -5 -11 -7 -23 -5 -26 2 -4 -2 -9 -10 -12 -11 -5 -13 0 -6 23 4 16 5 31 2
35 -4 3 3 14 15 23 27 22 40 62 20 62 -9 0 -18 -6 -20 -12 -3 -7 -6 3 -6 22 0
22 2 30 7 22 6 -9 12 -5 20 13 15 32 16 58 2 50 -5 -3 -10 1 -10 9 0 9 5 16
11 16 6 0 9 16 8 38 -2 21 1 43 5 50 4 8 5 16 2 19 -3 4 -6 0 -6 -8 0 -8 -6
-3 -13 11 -8 15 -10 28 -4 31 15 10 -1 42 -15 33 -10 -6 -10 -4 -2 7 13 16 8
67 -8 86 -7 9 -7 18 3 30 8 10 9 14 2 10 -6 -4 -14 -3 -17 2 -4 5 -2 12 4 16
5 3 10 14 10 23 0 13 -2 14 -9 4 -7 -11 -9 -11 -14 2 -16 42 -25 94 -17 103 8
8 13 37 11 60 0 7 -7 10 -14 7 -10 -4 -12 3 -9 27 3 21 1 30 -6 25 -6 -4 -9
-14 -6 -24 5 -15 4 -15 -6 1 -6 10 -9 25 -6 33 7 19 -14 65 -27 57 -7 -4 -8 1
-4 12 5 11 1 23 -10 32 -10 8 -12 12 -5 8 6 -3 12 -3 12 2 -1 12 -30 48 -30
37 0 -5 -5 -1 -11 9 -6 9 -14 15 -20 12 -5 -3 -6 1 -3 10 6 14 8 14 19 -2 12
-16 13 -15 8 10 -3 15 -9 27 -13 27 -4 0 -13 15 -21 33 -7 17 -21 44 -31 60
-11 15 -16 27 -11 27 4 0 3 4 -3 8 -11 7 -38 50 -75 119 -9 18 -19 30 -22 27
-3 -3 -8 4 -12 15 -3 12 -10 21 -14 21 -5 0 -16 20 -25 45 -16 41 -24 50 -42
43 -4 -2 -11 7 -15 20 -5 13 -13 20 -19 17 -6 -4 -9 -3 -8 2 2 4 -2 10 -7 11
-28 10 -45 24 -45 37 0 18 -150 166 -161 159 -5 -3 -12 2 -15 10 -3 9 -12 16
-20 16 -8 0 -14 5 -14 10 0 16 -43 29 -57 18 -10 -8 -13 -5 -13 12 0 15 -5 20
-14 17 -10 -4 -14 0 -11 13 2 11 -4 20 -16 23 -17 4 -19 2 -13 -16 6 -20 5
-21 -11 -7 -10 8 -21 15 -24 15 -3 0 -6 7 -6 15 0 8 -10 16 -22 18 -13 2 -23
10 -23 18 0 8 -5 14 -11 14 -6 0 -7 -6 -2 -12 4 -7 -5 -5 -20 5 -15 9 -60 29
-99 43 -40 14 -86 32 -103 39 -16 8 -31 10 -33 5 -2 -5 -21 2 -42 15 -21 13
-40 21 -44 18 -3 -3 -12 0 -21 7 -12 10 -15 10 -15 -1 0 -9 -3 -10 -8 -4 -9
12 -30 18 -60 16 -13 0 -21 3 -18 7 3 5 -8 6 -25 4 -18 -3 -29 0 -29 8 0 9
-11 10 -37 6 -24 -4 -33 -3 -25 2 10 7 5 9 -15 9 -15 1 -53 4 -83 7 -127 14
-215 15 -253 2z m1533 -756 c0 -5 -2 -10 -4 -10 -3 0 -8 5 -11 10 -3 6 -1 10
4 10 6 0 11 -4 11 -10z m88 -125 c-3 -3 -9 2 -12 12 -6 14 -5 15 5 6 7 -7 10
-15 7 -18z m66 -130 c3 -8 1 -15 -4 -15 -6 0 -10 7 -10 15 0 8 2 15 4 15 2 0
6 -7 10 -15z m100 -170 c3 -9 0 -15 -9 -15 -9 0 -12 6 -9 15 4 8 7 15 9 15 2
0 5 -7 9 -15z m-3394 -99 c0 -3 -4 -8 -10 -11 -5 -3 -10 -1 -10 4 0 6 5 11 10
11 6 0 10 -2 10 -4z m-16 -123 c-8 -35 -9 -131 -2 -127 10 6 9 -5 -2 -31 -7
-19 -8 -18 -14 5 -3 14 -4 45 -3 70 2 25 5 57 5 73 1 15 6 27 11 27 5 0 7 -8
5 -17z m881 -159 c109 -36 171 -107 183 -210 2 -24 9 -44 13 -44 11 0 2 -59
-10 -75 -5 -5 -11 -27 -14 -49 -3 -21 -18 -56 -33 -77 -43 -62 -78 -78 -186
-85 -93 -6 -95 -6 -151 26 -31 17 -55 36 -51 41 3 5 -1 6 -9 3 -15 -5 -44 22
-33 33 3 3 6 1 6 -6 0 -7 5 -9 10 -6 6 4 -2 21 -20 41 -16 19 -30 40 -31 47 0
7 -2 23 -4 37 -13 76 -13 99 -1 143 6 26 16 44 20 40 5 -4 5 3 1 16 -5 16 -4
21 4 17 6 -4 11 -1 11 7 0 24 45 57 119 85 89 34 112 36 176 16z m-791 -520
c3 -8 2 -12 -4 -9 -6 3 -10 10 -10 16 0 14 7 11 14 -7z m3369 -59 c-3 -9 -8
-14 -10 -11 -3 3 -2 9 2 15 9 16 15 13 8 -4z m0 -45 c-6 -24 -23 -37 -23 -18
0 12 18 38 26 38 1 0 0 -9 -3 -20z m-906 -1126 c-3 -3 -12 -4 -19 -1 -8 3 -5
6 6 6 11 1 17 -2 13 -5z m-1172 -14 c3 -5 1 -10 -4 -10 -6 0 -11 5 -11 10 0 6
2 10 4 10 3 0 8 -4 11 -10z m875 -30 c0 -5 -7 -10 -15 -10 -8 0 -15 5 -15 10
0 6 7 10 15 10 8 0 15 -4 15 -10z m-190 -30 c0 -5 -5 -10 -11 -10 -5 0 -7 5
-4 10 3 6 8 10 11 10 2 0 4 -4 4 -10z m37 -16 c-3 -3 -12 -4 -19 -1 -8 3 -5 6
6 6 11 1 17 -2 13 -5z m-157 -25 c0 -5 -7 -9 -15 -9 -9 0 -12 6 -9 15 6 15 24
11 24 -6z m-75 1 c15 -1 12 -4 -10 -11 -33 -10 -55 -5 -55 11 0 5 10 8 23 6
12 -3 31 -5 42 -6z"/>
<path d="M2544 2750 c-86 -30 -112 -48 -156 -113 -54 -80 -67 -117 -68 -198 0
-113 65 -207 186 -269 42 -21 62 -25 138 -24 88 1 89 1 120 36 17 20 39 38 49
42 9 3 21 16 27 30 5 13 14 27 19 31 6 3 11 15 11 26 0 11 5 17 10 14 9 -6 11
-1 14 38 1 6 7 17 15 23 8 7 15 38 18 83 3 61 0 81 -19 120 -36 75 -90 125
-161 151 -78 29 -138 32 -203 10z m208 -95 c2 2 12 -10 23 -28 l18 -32 -27 25
c-15 14 -32 34 -37 45 -9 18 -9 19 4 3 8 -10 16 -16 19 -13z m115 -59 c-1 -6
3 -10 8 -9 6 1 11 -6 11 -15 1 -9 4 -30 7 -47 6 -29 6 -29 -5 3 -7 20 -17 32
-29 32 -11 0 -19 5 -19 11 0 5 5 7 10 4 15 -10 12 6 -6 26 -15 16 -14 17 5 12
11 -3 19 -10 18 -17z"/>
<path d="M3693 2405 c-3 -9 -3 -18 -1 -21 3 -3 8 4 11 16 6 23 -1 27 -10 5z"/>
<path d="M3656 1455 c4 -8 8 -15 10 -15 2 0 4 7 4 15 0 8 -4 15 -10 15 -5 0
-7 -7 -4 -15z"/>
<path d="M3614 1365 c-3 -8 -4 -20 -2 -27 3 -7 7 -1 10 15 6 29 1 36 -8 12z"/>
<path d="M3583 1275 c-3 -9 -3 -18 -1 -21 3 -3 8 4 11 16 6 23 -1 27 -10 5z"/>
<path d="M1185 630 c3 -5 11 -10 16 -10 6 0 7 5 4 10 -3 6 -11 10 -16 10 -6 0
-7 -4 -4 -10z"/>
<path d="M1248 613 c7 -3 16 -2 19 1 4 3 -2 6 -13 5 -11 0 -14 -3 -6 -6z"/>
<path d="M1360 571 c-32 -6 -29 -7 29 -14 35 -4 67 -5 69 -2 3 3 -7 5 -21 5
-15 0 -27 5 -27 10 0 6 -3 9 -7 9 -5 -1 -24 -5 -43 -8z"/>
<path d="M2098 553 c7 -3 16 -2 19 1 4 3 -2 6 -13 5 -11 0 -14 -3 -6 -6z"/>
<path d="M1980 541 c0 -7 -22 -10 -61 -8 -44 1 -63 -2 -67 -11 -3 -11 11 -12
74 -7 44 4 85 12 91 17 7 6 24 7 38 4 14 -4 25 -2 25 4 0 5 -16 10 -35 10 -19
0 -35 -5 -35 -11 0 -8 -5 -8 -15 1 -10 8 -15 9 -15 1z"/>
<path d="M1674 523 c2 -10 6 -17 9 -15 4 1 12 2 18 2 8 0 8 5 -1 15 -17 20
-29 19 -26 -2z"/>
<path d="M1755 306 c11 -9 38 -15 60 -15 37 0 38 1 15 10 -14 6 -41 12 -60 15
-32 4 -33 4 -15 -10z"/>
</g>
</svg>
